<?xml version="1.0" standalone="no"?>
<!DOCTYPE svg PUBLIC "-//W3C//DTD SVG 20010904//EN"
 "http://www.w3.org/TR/2001/REC-SVG-20010904/DTD/svg10.dtd">
<svg version="1.0" xmlns="http://www.w3.org/2000/svg"
 width="300.000000pt" height="300.000000pt" viewBox="0 0 300.000000 300.000000"
 preserveAspectRatio="xMidYMid meet">
<metadata>
Created by potrace 1.14, written by Peter Selinger 2001-2017
</metadata>
<g transform="translate(0.000000,300.000000) scale(0.100000,-0.100000)"
fill="#000000" stroke="none">
<path d="M1369 2996 c-2 -2 -29 -6 -59 -10 -310 -32 -628 -187 -864 -421 -251
-248 -391 -536 -435 -895 -11 -88 -6 -330 8 -410 24 -132 27 -142 52 -219 126
-381 383 -686 730 -868 73 -39 225 -101 263 -109 10 -2 33 -8 50 -13 122 -39
404 -58 571 -39 438 50 848 313 1090 697 76 122 176 368 191 471 3 19 7 41 10
49 18 53 25 345 11 466 -36 304 -196 631 -421 857 -89 90 -249 218 -273 218
-4 0 -14 6 -22 14 -30 26 -196 104 -286 134 -180 59 -262 73 -456 78 -86 1
-158 1 -160 0z"/>
</g>
</svg>
